<?xml version="1.0" standalone="no"?>
<!DOCTYPE svg PUBLIC "-//W3C//DTD SVG 20010904//EN"
 "http://www.w3.org/TR/2001/REC-SVG-20010904/DTD/svg10.dtd">
<svg version="1.0" xmlns="http://www.w3.org/2000/svg"
 width="429.000000pt" height="429.000000pt" viewBox="0 0 429.000000 429.000000"
 preserveAspectRatio="xMidYMid meet">
<metadata>
Created by potrace 1.14, written by Peter Selinger 2001-2017
</metadata>
<g transform="translate(0.000000,429.000000) scale(0.100000,-0.100000)"
fill="#000000" stroke="none">
<path d="M1890 4275 c-47 -7 -103 -15 -125 -18 -159 -23 -429 -116 -600 -206
-104 -54 -273 -158 -300 -184 -7 -7 -25 -21 -39 -31 -91 -66 -261 -233 -351
-346 -103 -128 -180 -250 -255 -405 -120 -247 -172 -426 -209 -720 -9 -69 -7
-431 2 -470 2 -11 8 -42 11 -70 12 -87 15 -102 45 -217 37 -143 78 -254 145
-393 54 -114 141 -260 195 -330 17 -22 41 -53 54 -70 110 -146 328 -347 492
-454 104 -68 119 -76 260 -145 208 -103 425 -169 642 -197 173 -23 496 -17
643 11 30 6 69 13 85 16 17 2 64 14 105 25 41 12 80 22 85 23 13 4 22 7 130
46 266 96 538 273 755 490 104 104 270 307 270 329 0 5 4 11 8 13 8 3 43 61
109 180 91 164 193 477 218 668 4 30 10 64 12 75 3 11 6 106 8 210 2 172 -2
248 -21 370 -3 22 -8 53 -10 70 -2 16 -7 37 -10 47 -2 9 -6 25 -8 35 -53 265
-223 616 -419 860 -60 75 -205 226 -278 289 -156 136 -404 285 -594 358 -38
15 -79 31 -90 36 -52 24 -288 82 -380 95 -27 4 -61 9 -75 11 -60 11 -430 10
-510 -1z"/>
</g>
</svg>
